<?xml version="1.0" encoding="UTF-8"?>
<svg xmlns="http://www.w3.org/2000/svg" xmlns:xlink="http://www.w3.org/1999/xlink" width="800px" height="800px" viewBox="0 0 400 400" version="1.1">
<g id="surface1">
<path style=" stroke:none;fill-rule:nonzero;fill:rgb(97.647059%,65.490196%,15.294118%);fill-opacity:1;" d="M 335.980469 182.527344 C 335.980469 255.671875 276.6875 314.960938 203.546875 314.960938 C 130.40625 314.960938 71.113281 255.671875 71.113281 182.527344 C 71.113281 109.390625 130.40625 50.097656 203.546875 50.097656 C 276.6875 50.097656 335.980469 109.390625 335.980469 182.527344 "/>
<path style=" stroke:none;fill-rule:nonzero;fill:rgb(100%,100%,100%);fill-opacity:1;" d="M 396.457031 151.421875 C 396.246094 148.753906 395.753906 146.257812 395.136719 143.921875 C 393.859375 139.257812 391.992188 135.25 389.902344 131.699219 L 389.105469 130.398438 C 388.839844 129.96875 388.578125 129.542969 388.269531 129.078125 L 387.363281 127.734375 L 387.140625 127.402344 L 386.957031 127.167969 L 386.230469 126.222656 L 385.960938 125.871094 L 385.914062 125.8125 C 385.667969 125.414062 385.8125 125.660156 385.746094 125.550781 L 384.828125 124.375 C 384.222656 123.589844 383.566406 122.839844 382.914062 122.097656 C 381.601562 120.621094 380.21875 119.210938 378.773438 117.898438 C 377.320312 116.59375 375.8125 115.371094 374.265625 114.253906 C 368.042969 109.769531 361.0625 107.136719 354.601562 106.277344 C 348.113281 105.410156 342.164062 106.175781 337.285156 107.933594 C 334.84375 108.8125 332.660156 109.949219 330.777344 111.273438 C 328.90625 112.617188 327.335938 114.167969 326.230469 115.898438 C 325.679688 116.765625 325.242188 117.667969 324.976562 118.585938 C 324.714844 119.5 324.617188 120.402344 324.664062 121.21875 C 324.722656 122.039062 324.917969 122.753906 325.175781 123.339844 C 325.449219 123.921875 325.75 124.390625 326.054688 124.757812 C 326.644531 125.496094 327.246094 125.894531 327.605469 126.148438 C 327.984375 126.375 328.179688 126.496094 328.179688 126.496094 C 328.179688 126.496094 328.109375 126.277344 327.976562 125.855469 C 327.910156 125.644531 327.859375 125.382812 327.796875 125.09375 C 327.757812 124.789062 327.703125 124.449219 327.699219 124.078125 C 327.6875 123.707031 327.738281 123.308594 327.832031 122.921875 C 327.957031 122.53125 328.109375 122.160156 328.347656 121.828125 C 328.847656 121.164062 329.601562 120.667969 330.601562 120.257812 C 331.105469 120.0625 331.683594 119.902344 332.3125 119.785156 C 332.9375 119.652344 333.613281 119.5625 334.332031 119.519531 C 335.777344 119.425781 337.382812 119.492188 339.070312 119.753906 C 342.441406 120.265625 346.117188 121.539062 349.496094 123.566406 C 352.886719 125.609375 355.945312 128.386719 358.46875 131.804688 C 359.738281 133.511719 360.871094 135.390625 361.894531 137.421875 C 362.140625 137.9375 362.386719 138.453125 362.632812 138.980469 L 362.988281 139.773438 C 362.945312 139.707031 363.117188 139.992188 362.898438 139.636719 L 362.929688 139.703125 L 362.992188 139.839844 L 363.113281 140.109375 L 363.605469 141.195312 L 363.730469 141.464844 L 363.792969 141.65625 C 363.875 141.902344 363.953125 142.152344 364.046875 142.390625 L 364.328125 143.1875 L 364.621094 144.027344 C 364.777344 144.582031 364.980469 145.136719 365.101562 145.679688 L 365.316406 146.480469 L 365.496094 147.269531 C 365.710938 148.300781 365.851562 149.300781 365.921875 150.195312 C 366.035156 151.988281 365.824219 153.414062 365.46875 154.164062 C 365.304688 154.546875 365.136719 154.773438 364.984375 154.902344 C 364.820312 155.027344 364.734375 155.101562 364.589844 155.152344 C 364.3125 155.226562 363.957031 155.519531 362.980469 155.75 C 362.046875 156.007812 360.621094 156.15625 358.929688 156.058594 C 358.085938 156 357.171875 155.875 356.21875 155.695312 C 355.261719 155.511719 354.277344 155.234375 353.261719 154.933594 C 349.195312 153.65625 344.863281 151.332031 340.8125 148.421875 C 340.304688 148.042969 339.800781 147.671875 339.296875 147.296875 C 338.800781 146.902344 338.300781 146.511719 337.804688 146.125 C 337.320312 145.710938 336.8125 145.332031 336.335938 144.90625 L 335.613281 144.277344 L 335.34375 144.042969 L 335.300781 144.003906 C 335.125 143.816406 335.21875 143.925781 335.167969 143.871094 L 334.726562 143.488281 C 332.085938 141.109375 329.3125 138.917969 326.53125 136.976562 C 320.945312 133.085938 315.203125 130.164062 309.71875 128.109375 C 304.230469 126.050781 298.996094 124.851562 294.3125 124.289062 C 290.707031 123.851562 287.429688 123.789062 284.574219 123.976562 C 284.105469 123.339844 283.703125 122.828125 283.402344 122.496094 C 280.734375 119.5625 252.402344 103.496094 228.179688 107.382812 C 174.796875 115.953125 136.613281 108.996094 136.613281 108.996094 C 136.613281 108.996094 130.179688 108.941406 121.515625 101.605469 C 115.988281 96.929688 122.539062 102.445312 109.734375 95.828125 C 98.082031 89.804688 90.402344 77.605469 90.179688 74.496094 C 89.957031 71.386719 83.957031 41.382812 82.847656 40.496094 C 81.734375 39.605469 67.179688 61.828125 67.179688 61.828125 C 67.179688 61.828125 59.734375 62.273438 59.070312 61.828125 C 58.402344 61.386719 47.070312 43.382812 45.734375 42.71875 C 44.402344 42.050781 43.734375 68.273438 43.734375 68.273438 C 43.734375 68.273438 35.511719 80.273438 34.625 80.496094 C 33.734375 80.71875 29.960938 85.960938 29.960938 85.960938 C 30.070312 86.679688 30.316406 88.355469 30.847656 91.929688 C 32.179688 100.921875 14.347656 112.328125 11.234375 115.660156 C 8.125 118.996094 16.179688 127.160156 16.179688 127.160156 C 16.179688 127.160156 26.125 129.660156 25.902344 128.996094 C 25.894531 128.972656 25.90625 128.941406 25.929688 128.902344 C 26.863281 129.863281 29.179688 131.886719 29.320312 131.328125 C 29.433594 130.871094 28.640625 128.71875 28.652344 127.285156 C 29.460938 126.871094 30.390625 126.421875 31.351562 125.96875 C 32.351562 126.117188 33.257812 126.410156 33.652344 126.410156 C 34.3125 126.410156 37.234375 125.578125 37.234375 125.578125 C 37.234375 125.578125 37.734375 122.996094 38.984375 123.160156 C 40.234375 123.328125 40.570312 123.160156 40.570312 123.160156 C 40.570312 123.160156 42.984375 120.746094 43.820312 121.660156 C 44.089844 121.960938 44.3125 121.402344 44.523438 120.539062 C 46.820312 120.28125 48.636719 121.1875 47.308594 125.542969 L 45.460938 125.996094 L 45.460938 126.910156 L 43.984375 126.910156 L 40.152344 129.328125 C 40.152344 129.328125 40.21875 130.058594 40.164062 130.789062 C 39.472656 131.324219 38.828125 131.84375 38.230469 132.355469 C 36.878906 132.367188 35.105469 132.246094 35.105469 132.246094 L 35.105469 135.578125 L 35.109375 135.574219 C 34.671875 136.199219 34.367188 136.804688 34.234375 137.382812 C 33.566406 140.308594 38.402344 141.996094 38.402344 141.996094 C 36.496094 135.796875 48.109375 130.894531 58.238281 127.371094 C 59.410156 128.65625 60.433594 130.070312 61.210938 131.617188 C 62.238281 133.570312 62.886719 135.695312 63.335938 137.847656 C 64.1875 142.175781 64.234375 146.621094 64.253906 151.054688 C 64.257812 155.496094 64.203125 159.960938 64.375 164.441406 C 64.457031 166.683594 64.585938 168.921875 64.785156 171.167969 C 64.972656 173.421875 65.285156 175.679688 65.730469 177.917969 C 66.617188 182.394531 68.058594 186.808594 70.136719 190.945312 C 72.203125 195.082031 74.890625 198.921875 77.988281 202.359375 C 84.210938 209.226562 91.839844 214.519531 99.710938 219 C 102.257812 228.625 106.765625 268.441406 107.070312 282.496094 C 107.402344 297.828125 99.902344 308.496094 100.070312 307.828125 C 100.234375 307.160156 93.875 312.53125 90.734375 314.496094 C 88.070312 316.160156 86.328125 317.953125 86.234375 320.496094 C 86.164062 322.386719 95.734375 324.898438 104.734375 320.695312 C 113.734375 316.496094 114.070312 318.496094 113.902344 315.660156 C 113.734375 312.828125 118.402344 300.828125 123.570312 298.328125 L 128.734375 295.828125 C 128.734375 295.828125 119.878906 249.375 128.734375 247.160156 C 129.097656 247.070312 129.398438 246.984375 129.671875 246.898438 C 129.832031 247.300781 130 247.699219 130.148438 248.109375 C 130.289062 248.535156 130.433594 248.960938 130.574219 249.390625 C 130.832031 250.246094 131.058594 251.125 131.15625 251.941406 C 131.292969 252.925781 131.429688 253.917969 131.570312 254.921875 C 131.695312 255.917969 131.824219 256.917969 131.953125 257.933594 C 132.449219 261.988281 132.910156 266.222656 133.277344 270.601562 C 133.640625 274.976562 133.984375 279.507812 134.023438 284.109375 C 134.070312 286.417969 133.960938 288.714844 133.75 290.964844 C 133.484375 293.03125 132.855469 295.457031 132.164062 297.628906 C 131.441406 299.867188 130.558594 302.066406 129.507812 304.164062 C 128.957031 305.191406 128.394531 306.226562 127.746094 307.152344 C 127.113281 308.070312 126.394531 308.957031 125.730469 309.519531 C 125.558594 309.6875 125.433594 309.734375 125.308594 309.835938 C 125.25 309.871094 125.242188 309.855469 125.214844 309.875 L 125.199219 309.890625 C 125.21875 309.890625 125.097656 309.933594 125.089844 309.9375 L 124.859375 310.023438 C 124.085938 310.328125 123.5 310.601562 122.855469 310.917969 C 121.601562 311.535156 120.386719 312.210938 119.199219 312.964844 C 118.011719 313.722656 116.847656 314.550781 115.722656 315.511719 C 114.597656 316.476562 113.503906 317.574219 112.550781 318.976562 C 112.082031 319.683594 111.648438 320.484375 111.339844 321.414062 C 111.257812 321.636719 111.191406 321.882812 111.132812 322.128906 C 111.070312 322.371094 111.023438 322.625 110.992188 322.886719 C 110.949219 323.140625 110.929688 323.40625 110.925781 323.675781 L 110.917969 324.078125 C 111.082031 325.226562 110.855469 324.144531 111.160156 325.191406 C 111.488281 325.886719 111.65625 325.984375 111.773438 326.136719 C 111.949219 326.328125 112.007812 326.371094 112.132812 326.480469 C 112.257812 326.585938 112.320312 326.628906 112.414062 326.695312 C 112.601562 326.832031 112.710938 326.890625 112.859375 326.980469 C 113.113281 327.125 113.34375 327.238281 113.550781 327.332031 C 113.972656 327.519531 114.351562 327.664062 114.726562 327.792969 C 115.472656 328.050781 116.183594 328.25 116.898438 328.425781 C 119.738281 329.113281 122.574219 329.449219 125.484375 329.523438 C 128.386719 329.578125 131.367188 329.359375 134.378906 328.515625 C 135.878906 328.085938 137.386719 327.492188 138.828125 326.632812 C 139.546875 326.203125 140.246094 325.707031 140.902344 325.140625 C 141.230469 324.859375 141.546875 324.558594 141.847656 324.238281 C 142.003906 324.082031 142.144531 323.914062 142.292969 323.75 C 142.371094 323.65625 142.421875 323.605469 142.523438 323.476562 L 142.683594 323.277344 C 146.398438 318.6875 148.851562 313.425781 151.308594 308.699219 C 151.921875 307.527344 152.535156 306.378906 153.175781 305.414062 C 153.492188 304.9375 153.816406 304.503906 154.105469 304.195312 C 154.390625 303.875 154.644531 303.738281 154.625 303.753906 C 154.625 303.746094 154.605469 303.757812 154.578125 303.765625 C 154.570312 303.765625 154.5625 303.761719 154.558594 303.757812 C 155.382812 303.601562 154.726562 303.738281 155.164062 303.628906 C 155.542969 303.535156 156.136719 303.179688 156.234375 303.082031 C 156.414062 302.949219 156.625 302.757812 156.71875 302.648438 C 157.222656 302.085938 157.371094 301.722656 157.523438 301.40625 C 157.671875 301.082031 157.753906 300.828125 157.835938 300.578125 C 158.121094 299.617188 158.230469 298.863281 158.339844 298.101562 C 158.546875 296.601562 158.640625 295.195312 158.726562 293.789062 C 159.023438 288.203125 159.027344 282.777344 159.089844 277.378906 C 159.234375 266.613281 159.128906 256.027344 159.953125 245.972656 C 160.164062 243.464844 160.433594 240.992188 160.835938 238.621094 C 161.042969 237.433594 161.277344 236.273438 161.574219 235.175781 C 161.855469 234.082031 162.210938 233.027344 162.632812 232.210938 C 162.835938 231.8125 163.070312 231.472656 163.234375 231.308594 C 163.417969 231.125 163.421875 231.15625 163.378906 231.148438 C 163.375 231.144531 163.371094 231.140625 163.382812 231.144531 C 163.390625 231.144531 163.394531 231.136719 163.410156 231.144531 L 163.429688 231.144531 C 163.507812 231.164062 163.273438 231.109375 163.613281 231.179688 L 164.0625 231.257812 L 164.183594 231.277344 L 164.371094 231.292969 L 164.753906 231.324219 C 165.015625 231.339844 165.273438 231.347656 165.453125 231.332031 L 166.058594 231.300781 C 166.433594 231.25 166.828125 231.210938 167.175781 231.136719 C 168.605469 230.855469 169.851562 230.414062 171.039062 229.941406 C 172.222656 229.460938 173.34375 228.941406 174.433594 228.40625 C 178.757812 226.242188 182.699219 223.945312 186.5625 221.832031 C 190.410156 219.699219 194.15625 217.738281 197.839844 216.082031 C 198.5 215.785156 199.15625 215.5 199.8125 215.222656 L 200.085938 215.105469 C 202.597656 214.054688 205.082031 213.148438 207.515625 212.417969 L 208.019531 212.273438 C 210.832031 211.457031 216.027344 210.746094 216.902344 210.523438 C 217.546875 210.464844 218.1875 210.417969 218.816406 210.394531 C 220.433594 210.335938 222 210.386719 223.503906 210.53125 C 223.597656 210.539062 223.691406 210.554688 223.785156 210.5625 C 222.742188 214.113281 220.558594 226.773438 237.402344 238.660156 L 257.234375 252.660156 C 257.234375 252.660156 270.667969 265.132812 270.734375 275.160156 C 270.820312 287.660156 266.570312 294.660156 266.570312 294.660156 L 253.402344 302.746094 C 253.402344 302.746094 249.234375 307.695312 250.902344 310.078125 C 252.570312 312.460938 275.152344 310.945312 274.984375 309.496094 C 274.738281 307.363281 277.570312 292.160156 281.234375 289.496094 C 284.902344 286.828125 297.734375 270.328125 296.734375 268.496094 C 295.734375 266.660156 295.722656 265.328125 295.722656 265.328125 C 295.722656 265.328125 280.738281 251.277344 277.78125 244.34375 C 279.949219 245.378906 282.152344 246.34375 284.390625 247.203125 L 286.792969 248.148438 C 287.5625 248.476562 288.335938 248.78125 289.109375 249.140625 C 290.65625 249.820312 292.167969 250.566406 293.652344 251.363281 C 299.578125 254.539062 304.992188 258.671875 309.164062 263.820312 C 311.25 266.390625 313.011719 269.207031 314.367188 272.207031 C 315.722656 275.207031 316.679688 278.382812 317.195312 281.625 C 317.707031 284.867188 317.800781 288.183594 317.421875 291.425781 C 317.222656 293.042969 316.9375 294.648438 316.496094 296.195312 C 316.128906 297.480469 315.660156 298.734375 315.082031 299.863281 C 314.320312 300.078125 313.5625 300.304688 312.8125 300.570312 C 311.789062 300.929688 310.773438 301.332031 309.78125 301.789062 C 309.464844 301.9375 309.152344 302.097656 308.839844 302.257812 L 308.824219 302.210938 C 307.097656 302.925781 305.386719 303.644531 303.675781 304.382812 C 301.964844 305.121094 300.261719 305.863281 298.550781 306.683594 C 298.117188 306.894531 297.695312 307.105469 297.230469 307.367188 C 297.105469 307.441406 297.003906 307.496094 296.832031 307.613281 L 296.714844 307.699219 C 296.671875 307.726562 296.554688 307.832031 296.492188 307.902344 L 296.390625 308.011719 L 296.390625 308.015625 C 296.394531 308.015625 296.386719 308.027344 296.371094 308.042969 C 296.273438 308.171875 296.089844 308.371094 295.933594 308.558594 C 295.28125 309.332031 294.664062 310.261719 294.382812 311.347656 C 294.085938 312.433594 294.207031 313.625 294.644531 314.582031 C 295.074219 315.550781 295.722656 316.332031 296.414062 317.003906 L 296.367188 316.949219 C 296.660156 317.289062 296.921875 317.472656 297.226562 317.667969 C 297.523438 317.855469 297.835938 317.996094 298.152344 318.121094 C 298.785156 318.359375 299.445312 318.472656 300.097656 318.515625 C 300.75 318.574219 301.394531 318.519531 302.03125 318.457031 L 302.863281 318.316406 L 302.898438 318.34375 L 303.707031 318.265625 C 309.46875 317.710938 315.261719 317.203125 321 316.808594 C 322.414062 316.722656 323.890625 316.628906 325.1875 316.640625 L 325.414062 316.644531 L 325.59375 316.652344 C 325.609375 316.65625 325.613281 316.65625 325.621094 316.65625 C 325.617188 316.65625 325.617188 316.652344 325.621094 316.652344 C 325.777344 316.671875 325.269531 316.601562 325.972656 316.699219 L 326.003906 316.699219 C 325.941406 316.699219 326.265625 316.707031 326.382812 316.679688 C 326.546875 316.660156 326.710938 316.617188 326.863281 316.5625 C 327.003906 316.507812 327.089844 316.464844 327.199219 316.40625 C 327.296875 316.355469 327.339844 316.320312 327.410156 316.277344 C 327.652344 316.105469 327.769531 315.988281 327.886719 315.875 C 327.996094 315.769531 328.089844 315.667969 328.171875 315.574219 C 328.335938 315.386719 328.476562 315.210938 328.605469 315.039062 C 329.113281 314.363281 329.519531 313.722656 329.921875 313.070312 C 331.496094 310.488281 332.835938 307.875 334.132812 305.222656 C 336.691406 299.917969 338.953125 294.484375 340.851562 288.894531 C 341.796875 286.097656 342.644531 283.257812 343.316406 280.355469 C 343.988281 277.453125 344.511719 274.496094 344.695312 271.445312 C 344.785156 269.917969 344.785156 268.367188 344.625 266.796875 C 344.460938 265.226562 344.136719 263.621094 343.476562 262.058594 C 342.828125 260.503906 341.777344 258.984375 340.335938 257.898438 C 340.160156 257.757812 339.972656 257.632812 339.785156 257.507812 C 339.695312 257.445312 339.597656 257.390625 339.503906 257.332031 L 339.257812 257.183594 L 338.320312 256.628906 C 337.71875 256.253906 337.183594 255.921875 336.613281 255.511719 C 334.359375 253.941406 332.359375 252.046875 330.695312 249.890625 C 329.027344 247.738281 327.71875 245.308594 326.792969 242.71875 C 324.929688 237.527344 324.582031 231.796875 325.160156 226.1875 C 325.449219 223.375 325.960938 220.574219 326.644531 217.8125 C 327.332031 215.0625 328.195312 212.292969 329.261719 209.726562 L 329.402344 209.390625 L 329.359375 209.09375 C 329.136719 207.515625 328.882812 205.988281 328.609375 204.449219 C 328.335938 202.914062 328.042969 201.382812 327.730469 199.851562 C 327.101562 196.800781 326.417969 193.757812 325.632812 190.738281 C 324.066406 184.703125 322.21875 178.742188 319.988281 172.921875 C 319.363281 171.296875 318.703125 169.683594 318.015625 168.085938 C 318.957031 169.125 319.949219 170.144531 320.972656 171.167969 C 322.378906 172.546875 323.851562 173.90625 325.441406 175.199219 C 327.007812 176.503906 328.671875 177.769531 330.429688 178.957031 C 332.191406 180.148438 334.046875 181.277344 335.984375 182.335938 C 337.945312 183.363281 339.992188 184.320312 342.136719 185.179688 C 344.285156 186.03125 346.550781 186.734375 348.898438 187.324219 C 350.074219 187.621094 351.28125 187.867188 352.503906 188.089844 L 354.367188 188.359375 C 354.996094 188.433594 355.632812 188.496094 356.265625 188.558594 C 361.363281 189.011719 366.894531 188.648438 372.523438 186.90625 C 375.328125 186.035156 378.136719 184.777344 380.816406 183.113281 C 383.5 181.457031 386.027344 179.359375 388.207031 176.90625 C 390.390625 174.460938 392.214844 171.667969 393.527344 168.738281 C 394.855469 165.8125 395.71875 162.785156 396.167969 159.855469 C 396.609375 156.917969 396.660156 154.082031 396.457031 151.421875 "/>
<path style=" stroke:none;fill-rule:nonzero;fill:rgb(6.666667%,5.882353%,5.098039%);fill-opacity:1;" d="M 88.238281 127.078125 C 86.667969 123.359375 84.609375 119.835938 82.257812 116.441406 C 85.277344 119.261719 87.855469 122.585938 89.980469 126.199219 C 92.09375 129.824219 93.6875 133.761719 94.847656 137.800781 C 97.171875 145.914062 97.773438 154.304688 98.324219 162.460938 C 98.890625 170.617188 99.363281 178.714844 101.667969 186.339844 C 102.816406 190.140625 104.445312 193.792969 106.601562 197.175781 C 108.730469 200.582031 111.4375 203.644531 114.410156 206.507812 C 110.890625 204.347656 107.707031 201.574219 105.011719 198.332031 C 102.324219 195.082031 100.214844 191.320312 98.695312 187.363281 C 97.15625 183.398438 96.230469 179.246094 95.585938 175.117188 C 94.945312 170.976562 94.617188 166.832031 94.335938 162.730469 C 93.785156 154.523438 93.464844 146.417969 91.808594 138.558594 C 90.988281 134.632812 89.828125 130.785156 88.238281 127.078125 M 88.769531 183.613281 C 86.480469 176.296875 85.78125 168.6875 85.246094 161.289062 C 84.703125 153.875 84.355469 146.539062 82.847656 139.441406 C 82.101562 135.898438 81.050781 132.425781 79.589844 129.089844 C 78.152344 125.742188 76.238281 122.589844 74.019531 119.574219 C 76.882812 121.988281 79.324219 124.941406 81.320312 128.1875 C 83.308594 131.441406 84.796875 135.011719 85.886719 138.667969 C 88.058594 146.015625 88.683594 153.605469 89.230469 161 C 89.777344 168.402344 90.191406 175.722656 91.804688 182.789062 C 92.605469 186.316406 93.71875 189.769531 95.238281 193.078125 C 96.738281 196.398438 98.703125 199.519531 100.960938 202.507812 C 98.0625 200.132812 95.574219 197.226562 93.515625 194.015625 C 91.46875 190.796875 89.914062 187.257812 88.769531 183.613281 M 299.539062 320.472656 C 298.957031 320.53125 298.335938 320.585938 297.71875 320.53125 C 297.589844 320.523438 297.480469 320.5 297.359375 320.484375 C 296.839844 319.8125 296.496094 319.035156 296.382812 318.226562 C 296.246094 317.316406 296.339844 316.386719 296.554688 315.496094 C 296.773438 314.605469 297.105469 313.742188 297.511719 312.914062 C 297.777344 312.367188 298.085938 311.816406 298.414062 311.304688 C 298.917969 311.148438 299.417969 310.992188 299.925781 310.839844 C 299.925781 310.84375 299.921875 310.847656 299.921875 310.847656 C 299.488281 311.683594 299.09375 312.550781 298.765625 313.488281 C 298.445312 314.4375 298.164062 315.4375 298.148438 316.664062 C 298.148438 317.269531 298.21875 317.949219 298.488281 318.660156 C 298.625 319.011719 298.816406 319.359375 299.050781 319.6875 C 299.257812 319.96875 299.503906 320.210938 299.761719 320.433594 Z M 295.847656 318.363281 C 296.023438 318.84375 296.25 319.296875 296.539062 319.703125 C 296.75 319.988281 296.992188 320.238281 297.25 320.46875 C 297.046875 320.445312 296.84375 320.414062 296.65625 320.375 C 296.441406 320.296875 296.234375 320.207031 296.039062 320.101562 C 295.78125 319.957031 295.535156 319.804688 295.316406 319.621094 C 295.105469 319.449219 294.882812 319.214844 294.789062 319.054688 L 294.742188 318.996094 C 294.203125 318.304688 293.753906 317.550781 293.539062 316.78125 C 293.320312 316.011719 293.371094 315.253906 293.660156 314.578125 C 293.945312 313.894531 294.453125 313.296875 295.078125 312.742188 C 295.238281 312.597656 295.390625 312.476562 295.609375 312.269531 C 295.632812 312.246094 295.664062 312.214844 295.707031 312.167969 L 295.761719 312.105469 C 295.765625 312.105469 295.738281 312.144531 295.726562 312.160156 C 295.707031 312.195312 295.628906 312.25 295.636719 312.25 L 295.660156 312.242188 L 295.871094 312.152344 C 295.917969 312.132812 295.976562 312.113281 296.03125 312.09375 C 296.007812 312.175781 295.980469 312.257812 295.957031 312.339844 C 295.691406 313.320312 295.511719 314.328125 295.460938 315.347656 C 295.414062 316.363281 295.507812 317.40625 295.847656 318.363281 M 121.4375 301.609375 L 127.0625 298.886719 L 126.96875 298.382812 C 123.453125 279.960938 120.421875 252 126.472656 250.488281 C 126.609375 250.453125 126.734375 250.421875 126.855469 250.386719 C 126.9375 250.597656 127.019531 250.804688 127.09375 250.996094 L 127.511719 252.261719 C 127.8125 253.265625 127.992188 254.039062 128.070312 254.714844 L 128.484375 257.6875 L 128.867188 260.695312 C 129.421875 265.203125 129.855469 269.339844 130.191406 273.335938 C 130.546875 277.628906 130.894531 282.207031 130.933594 286.804688 C 130.976562 288.921875 130.886719 291.203125 130.667969 293.558594 C 130.4375 295.351562 129.882812 297.675781 129.105469 300.105469 C 128.371094 302.375 127.492188 304.542969 126.496094 306.53125 C 125.945312 307.5625 125.398438 308.558594 124.773438 309.453125 C 124.101562 310.429688 123.429688 311.222656 122.839844 311.722656 C 122.78125 311.78125 122.734375 311.8125 122.664062 311.855469 C 122.628906 311.882812 122.59375 311.90625 122.558594 311.929688 C 122.523438 311.945312 122.488281 311.960938 122.453125 311.984375 L 122.1875 312.082031 C 121.410156 312.390625 120.804688 312.671875 120.136719 313 C 118.8125 313.652344 117.597656 314.332031 116.417969 315.082031 C 115.074219 315.9375 113.910156 316.789062 112.863281 317.6875 C 112.613281 317.902344 112.375 318.113281 112.144531 318.328125 C 112.144531 318.320312 112.144531 318.308594 112.144531 318.300781 C 111.996094 315.796875 116.523438 303.984375 121.4375 301.609375 M 59.382812 133.996094 C 58.664062 132.566406 57.6875 131.164062 56.492188 129.816406 C 57.640625 129.421875 58.769531 129.042969 59.84375 128.683594 C 62.566406 132.535156 64.175781 136.929688 65.101562 141.464844 C 66.300781 147.164062 66.695312 153.074219 67.132812 159.03125 C 67.554688 164.988281 67.972656 171.027344 68.933594 177.039062 C 69.898438 183.027344 71.375 189.046875 74.058594 194.507812 C 72.96875 188.539062 72.40625 182.640625 72.058594 176.695312 C 71.695312 170.753906 71.554688 164.777344 71.121094 158.746094 C 70.671875 152.726562 69.996094 146.597656 68.128906 140.65625 C 67.191406 137.699219 65.917969 134.796875 64.144531 132.222656 C 63.171875 130.816406 62.0625 129.511719 60.835938 128.355469 C 63.863281 127.347656 66.449219 126.496094 68.050781 125.800781 C 69.1875 127.507812 70.171875 129.28125 70.980469 131.132812 C 72.3125 134.113281 73.25 137.230469 73.925781 140.410156 C 75.28125 146.78125 75.667969 153.378906 76.175781 160.039062 C 76.679688 166.699219 77.273438 173.484375 78.871094 180.144531 C 79.675781 183.464844 80.730469 186.742188 82.152344 189.859375 C 83.589844 192.960938 85.328125 195.925781 87.507812 198.507812 C 84.589844 192.414062 82.910156 186.039062 81.960938 179.539062 C 80.988281 173.039062 80.675781 166.425781 80.164062 159.738281 C 79.644531 153.066406 78.980469 146.234375 76.960938 139.617188 C 75.941406 136.324219 74.5625 133.105469 72.699219 130.199219 C 71.582031 128.472656 70.304688 126.851562 68.878906 125.402344 C 69.523438 125.058594 69.847656 124.757812 69.757812 124.507812 C 68.867188 122.0625 50.199219 117.839844 48.75 116.285156 C 47.296875 114.730469 48.867188 111.839844 48.867188 111.839844 C 56.421875 103.175781 70.3125 84.285156 89.3125 104.953125 C 94.648438 110.753906 97.957031 118.890625 100.367188 127.527344 C 99.839844 126.40625 99.28125 125.304688 98.679688 124.226562 C 96.421875 120.226562 93.6875 116.527344 90.5 113.308594 C 93.003906 117.085938 95.222656 120.984375 96.925781 125.085938 C 98.671875 129.164062 99.921875 133.414062 100.832031 137.730469 C 101.695312 142.058594 102.292969 146.445312 102.617188 150.886719 C 102.988281 155.324219 103.210938 159.800781 103.445312 164.316406 C 103.726562 168.828125 104.070312 173.386719 104.832031 177.941406 C 105.210938 180.214844 105.714844 182.480469 106.324219 184.722656 C 106.628906 185.84375 107.015625 186.949219 107.367188 188.058594 C 107.796875 189.144531 108.230469 190.234375 108.695312 191.300781 L 109.472656 192.878906 C 109.738281 193.398438 109.972656 193.933594 110.285156 194.429688 L 111.183594 195.9375 L 111.636719 196.683594 L 112.148438 197.394531 C 112.855469 198.328125 113.488281 199.308594 114.285156 200.160156 C 115.054688 201.03125 115.777344 201.9375 116.644531 202.710938 C 119.96875 205.933594 123.785156 208.535156 127.863281 210.507812 C 124.25 207.773438 120.863281 204.816406 118.09375 201.382812 C 115.285156 197.992188 113.125 194.160156 111.578125 190.105469 C 110.074219 186.027344 109.128906 181.746094 108.578125 177.375 C 108 173.003906 107.703125 168.558594 107.4375 164.074219 C 107.277344 161.796875 107.136719 159.507812 106.972656 157.210938 C 108.464844 163.113281 110.234375 167.929688 112.875 170.703125 C 113.125 174.097656 113.480469 177.503906 114.082031 180.90625 C 114.28125 182.148438 114.566406 183.386719 114.855469 184.621094 C 115.105469 185.859375 115.519531 187.074219 115.855469 188.296875 C 116.015625 188.910156 116.257812 189.507812 116.46875 190.109375 L 117.128906 191.90625 C 117.664062 193.070312 118.171875 194.246094 118.765625 195.378906 C 119.996094 197.621094 121.339844 199.816406 123 201.753906 L 124.238281 203.207031 C 124.648438 203.691406 125.136719 204.109375 125.578125 204.5625 L 126.9375 205.886719 C 127.40625 206.3125 127.90625 206.699219 128.390625 207.097656 C 132.320312 210.261719 136.722656 212.691406 141.3125 214.507812 C 137.117188 211.898438 133.101562 209.066406 129.707031 205.636719 C 126.277344 202.261719 123.527344 198.308594 121.570312 194.011719 C 119.636719 189.695312 118.488281 185.046875 117.820312 180.296875 C 117.472656 177.925781 117.226562 175.527344 117.03125 173.113281 C 117.640625 173.238281 118.285156 173.289062 118.964844 173.261719 C 120.96875 178.742188 123.292969 184.089844 125.996094 189.242188 C 129.164062 195.269531 132.859375 201.058594 137.390625 206.152344 C 139.65625 208.691406 142.136719 211.046875 144.863281 213.066406 C 147.589844 215.082031 150.578125 216.75 153.757812 217.839844 C 150.675781 216.488281 147.882812 214.601562 145.386719 212.414062 C 142.886719 210.226562 140.671875 207.738281 138.679688 205.09375 C 134.695312 199.796875 131.589844 193.898438 129.007812 187.8125 C 126.851562 182.710938 125.058594 177.457031 123.585938 172.132812 C 124.816406 171.601562 126.015625 170.914062 127.1875 170.105469 C 129.6875 175.910156 132.410156 181.617188 135.433594 187.164062 C 138.828125 193.375 142.597656 199.410156 147.039062 204.933594 C 149.261719 207.6875 151.660156 210.3125 154.300781 212.660156 C 156.941406 215.007812 159.839844 217.085938 163.015625 218.582031 C 159.96875 216.835938 157.285156 214.566406 154.878906 212.0625 C 152.472656 209.550781 150.335938 206.800781 148.378906 203.9375 C 144.46875 198.199219 141.253906 192.015625 138.417969 185.683594 C 135.679688 179.542969 133.292969 173.25 131.171875 166.871094 C 132.113281 166.003906 133.042969 165.089844 133.960938 164.144531 C 134.167969 164.5625 134.371094 164.984375 134.578125 165.402344 C 137.832031 172.015625 141.210938 178.585938 144.839844 185.019531 C 148.464844 191.453125 152.34375 197.765625 156.734375 203.71875 C 158.933594 206.691406 161.265625 209.570312 163.816406 212.242188 C 165.050781 213.527344 166.335938 214.765625 167.683594 215.921875 C 167.328125 216.046875 166.980469 216.207031 166.660156 216.402344 C 165.851562 216.894531 165.148438 217.535156 164.507812 218.222656 C 163.226562 219.605469 162.195312 221.175781 161.242188 222.773438 C 160.296875 224.375 159.453125 226.03125 158.660156 227.703125 C 158.261719 228.539062 157.882812 229.382812 157.507812 230.21875 L 157.398438 230.457031 C 156.6875 231.132812 156.238281 231.832031 155.84375 232.503906 C 155.09375 233.863281 154.640625 235.179688 154.246094 236.484375 C 153.867188 237.789062 153.585938 239.082031 153.335938 240.378906 C 152.839844 242.964844 152.511719 245.554688 152.242188 248.15625 C 151.710938 253.359375 151.433594 258.617188 151.226562 263.929688 C 151.125 266.585938 151.046875 269.25 150.976562 271.929688 C 150.933594 274.605469 150.886719 277.289062 150.839844 279.988281 C 150.746094 285.363281 150.699219 290.808594 150.382812 296.109375 C 150.296875 297.425781 150.191406 298.742188 150.019531 299.949219 C 149.972656 300.296875 149.910156 300.640625 149.84375 300.941406 C 148.703125 301.433594 147.941406 302.121094 147.339844 302.738281 C 146.691406 303.425781 146.199219 304.097656 145.753906 304.753906 C 144.878906 306.070312 144.195312 307.335938 143.539062 308.589844 C 142.25 311.09375 141.089844 313.511719 139.816406 315.820312 C 138.546875 318.128906 137.199219 320.296875 135.625 322.265625 L 135.464844 322.464844 C 135.464844 322.472656 135.394531 322.542969 135.367188 322.582031 C 135.285156 322.671875 135.210938 322.765625 135.125 322.851562 C 134.960938 323.027344 134.785156 323.199219 134.597656 323.359375 C 134.226562 323.6875 133.8125 323.988281 133.367188 324.257812 C 132.472656 324.800781 131.441406 325.230469 130.335938 325.550781 C 128.28125 326.144531 126.003906 326.382812 123.714844 326.386719 C 123.675781 326.226562 123.644531 326.0625 123.632812 325.894531 C 123.558594 324.90625 123.972656 323.773438 124.621094 322.757812 C 125.273438 321.734375 126.117188 320.789062 127.042969 319.921875 C 127.503906 319.488281 127.992188 319.074219 128.496094 318.683594 C 129.003906 318.300781 129.511719 317.890625 130.089844 317.617188 C 129.464844 317.792969 128.890625 318.109375 128.3125 318.402344 C 127.742188 318.707031 127.179688 319.039062 126.632812 319.398438 C 125.535156 320.113281 124.488281 320.9375 123.5625 321.949219 C 122.65625 322.949219 121.828125 324.214844 121.636719 325.8125 C 121.613281 325.980469 121.609375 326.148438 121.609375 326.320312 C 119.640625 326.199219 117.675781 325.929688 115.808594 325.507812 C 115.378906 325.410156 114.960938 325.296875 114.558594 325.183594 C 114.636719 325.03125 114.714844 324.882812 114.808594 324.726562 C 115.328125 323.933594 116.074219 323.113281 116.929688 322.355469 C 117.78125 321.59375 118.738281 320.882812 119.738281 320.21875 C 120.734375 319.554688 121.785156 318.945312 122.839844 318.402344 C 123.351562 318.136719 123.933594 317.859375 124.355469 317.683594 L 124.574219 317.59375 C 124.640625 317.570312 124.597656 317.585938 124.6875 317.546875 L 124.886719 317.457031 C 125.144531 317.332031 125.4375 317.195312 125.652344 317.054688 C 126.050781 316.789062 126.472656 316.496094 126.761719 316.214844 C 128.03125 315.078125 128.871094 313.914062 129.667969 312.734375 C 130.453125 311.554688 131.082031 310.347656 131.695312 309.140625 C 132.867188 306.714844 133.765625 304.234375 134.476562 301.742188 C 135.191406 299.183594 135.742188 296.851562 136.019531 294.113281 C 136.183594 291.550781 136.210938 289.078125 136.085938 286.683594 C 135.648438 277.085938 134.28125 268.261719 132.941406 260.113281 C 132.765625 259.097656 132.589844 258.089844 132.417969 257.097656 C 132.332031 256.597656 132.242188 256.105469 132.152344 255.613281 L 132.015625 254.875 L 131.882812 254.191406 C 131.695312 253.0625 131.382812 252.070312 131.046875 251.105469 C 130.863281 250.632812 130.679688 250.160156 130.496094 249.695312 C 130.300781 249.242188 130.085938 248.800781 129.882812 248.359375 C 128.207031 244.847656 126.179688 241.816406 124.09375 239.132812 C 122 236.457031 119.886719 234.082031 117.742188 232.089844 C 117.210938 231.585938 116.699219 231.085938 116.183594 230.613281 C 115.648438 230.160156 115.128906 229.714844 114.621094 229.28125 C 114.109375 228.851562 113.625 228.410156 113.121094 228.019531 C 112.613281 227.636719 112.121094 227.257812 111.640625 226.890625 C 111.226562 226.574219 110.828125 226.269531 110.433594 225.96875 L 104.273438 220.464844 C 108.609375 222.304688 113.394531 224.328125 118.191406 226.328125 C 126.058594 229.613281 133.949219 232.851562 139.914062 235.167969 C 141.402344 235.753906 142.777344 236.269531 143.996094 236.71875 C 145.207031 237.183594 146.28125 237.550781 147.167969 237.847656 C 147.609375 237.996094 148 238.136719 148.347656 238.242188 C 148.699219 238.335938 148.996094 238.414062 149.238281 238.480469 C 149.722656 238.605469 149.976562 238.675781 149.976562 238.675781 C 149.976562 238.675781 149.726562 238.589844 149.25 238.4375 C 149.015625 238.359375 148.722656 238.261719 148.378906 238.148438 C 148.039062 238.023438 147.65625 237.859375 147.226562 237.6875 C 146.363281 237.339844 145.316406 236.910156 144.132812 236.378906 C 142.945312 235.859375 141.605469 235.265625 140.160156 234.59375 C 134.351562 231.933594 126.671875 228.246094 119.015625 224.507812 C 103.703125 217.03125 88.492188 209.363281 88.492188 209.363281 L 88.355469 209.652344 C 84.933594 207.363281 81.699219 204.835938 78.777344 201.972656 C 75.734375 198.972656 73.0625 195.605469 70.925781 191.898438 C 68.78125 188.195312 67.179688 184.160156 66.085938 179.964844 C 64.964844 175.773438 64.453125 171.398438 64.046875 166.992188 C 63.648438 162.585938 63.46875 158.148438 63.230469 153.695312 C 62.976562 149.25 62.695312 144.742188 61.59375 140.371094 C 61.535156 140.152344 61.46875 139.933594 61.40625 139.714844 C 60.898438 137.519531 60.242188 135.628906 59.382812 133.996094 M 45.4375 92.882812 C 42.605469 90.464844 47.1875 88.425781 46.644531 88.839844 C 46.644531 88.839844 51.746094 88.421875 54.5625 91.921875 C 49.285156 92.007812 47.203125 94.390625 45.4375 92.882812 M 232.804688 209.566406 C 231.066406 204.679688 229.117188 199.863281 227.03125 195.105469 C 225.980469 192.722656 224.894531 190.351562 223.777344 188 C 226.804688 187.621094 229.746094 186.9375 232.566406 185.988281 C 232.640625 186.324219 232.710938 186.660156 232.785156 187 C 233.539062 190.371094 234.40625 193.714844 235.371094 197.042969 C 237.304688 203.679688 239.734375 210.222656 243 216.386719 C 244.636719 219.464844 246.472656 222.445312 248.535156 225.273438 C 249.613281 226.734375 250.753906 228.148438 251.945312 229.515625 C 245.65625 224.390625 239.976562 219.226562 234.863281 215.796875 C 234.226562 213.707031 233.535156 211.628906 232.804688 209.566406 M 223.671875 211.652344 C 223.429688 211.027344 223.195312 210.402344 222.949219 209.777344 C 221.125 205.183594 219.175781 200.636719 217.125 196.136719 C 215.882812 193.425781 214.597656 190.734375 213.289062 188.054688 C 216.082031 188.371094 218.832031 188.417969 221.523438 188.222656 C 222.894531 190.730469 224.230469 193.261719 225.523438 195.816406 C 227.847656 200.425781 230.039062 205.101562 232.027344 209.867188 C 232.785156 211.683594 233.511719 213.511719 234.191406 215.355469 C 230.550781 213.003906 227.195312 211.585938 224.117188 211.765625 C 223.96875 211.726562 223.820312 211.6875 223.671875 211.652344 M 207.230469 197.1875 C 205.289062 193.101562 203.289062 189.039062 201.238281 185 C 204.371094 186.242188 207.492188 187.117188 210.574219 187.660156 C 212.296875 190.707031 213.992188 193.769531 215.628906 196.871094 C 217.914062 201.226562 220.113281 205.636719 222.183594 210.105469 C 222.390625 210.558594 222.589844 211.011719 222.796875 211.464844 C 220.777344 211.050781 218.625 210.808594 216.371094 210.765625 C 215.414062 210.75 214.441406 210.773438 213.457031 210.828125 C 211.449219 206.253906 209.371094 201.707031 207.230469 197.1875 M 204.25 212.238281 C 201.945312 207.585938 199.671875 202.914062 197.355469 198.265625 C 193.613281 190.726562 189.808594 183.214844 185.835938 175.769531 C 189.640625 178.886719 193.492188 181.367188 197.339844 183.269531 C 200.222656 188.109375 203.027344 193.003906 205.746094 197.945312 C 208.089844 202.226562 210.382812 206.539062 212.609375 210.882812 C 210.304688 211.054688 207.933594 211.40625 205.523438 211.9375 C 205.101562 212.03125 204.675781 212.132812 204.25 212.238281 M 193.503906 210.609375 C 191.449219 206.894531 189.464844 203.132812 187.503906 199.363281 L 175.792969 176.679688 C 171.839844 169.128906 167.832031 161.59375 163.453125 154.207031 C 162.65625 152.863281 161.84375 151.53125 161.019531 150.199219 C 164.167969 151.914062 167.566406 155.070312 171.3125 160.175781 C 172.621094 161.957031 173.945312 163.636719 175.277344 165.230469 C 177.636719 168.789062 179.9375 172.394531 182.199219 176.023438 C 186.902344 183.601562 191.421875 191.304688 195.886719 199.050781 C 198.457031 203.492188 200.988281 207.964844 203.546875 212.417969 C 201.03125 213.066406 198.488281 213.894531 195.917969 214.859375 C 195.097656 213.449219 194.292969 212.035156 193.503906 210.609375 M 183.777344 210.9375 L 182.183594 208.367188 C 181.660156 207.503906 181.167969 206.621094 180.660156 205.75 C 179.648438 204.003906 178.640625 202.261719 177.6875 200.476562 C 173.796875 193.402344 170.128906 186.203125 166.484375 178.980469 C 162.835938 171.761719 159.210938 164.519531 155.386719 157.328125 C 154.425781 155.535156 153.480469 153.734375 152.464844 151.953125 C 151.972656 151.078125 151.484375 150.195312 150.988281 149.320312 C 151.753906 149.039062 152.53125 148.828125 153.324219 148.699219 C 155.363281 151.355469 157.324219 154.101562 159.238281 156.890625 C 163.996094 163.847656 168.46875 171.066406 172.890625 178.316406 L 186.050781 200.183594 C 188.257812 203.820312 190.488281 207.453125 192.789062 211.039062 C 193.652344 212.382812 194.53125 213.71875 195.421875 215.046875 C 194.972656 215.214844 194.519531 215.390625 194.0625 215.574219 C 192.238281 216.296875 190.398438 217.09375 188.550781 217.933594 C 186.851562 215.679688 185.25 213.351562 183.777344 210.9375 M 162.742188 229.226562 C 162.71875 229.226562 162.695312 229.226562 162.667969 229.226562 L 162.632812 229.230469 L 162.523438 229.210938 L 162.117188 229.128906 C 162.082031 229.121094 162.039062 229.109375 162.039062 229.109375 L 161.835938 229.066406 C 161.703125 229.039062 161.550781 229.023438 161.40625 229.007812 C 161.429688 228.917969 161.449219 228.828125 161.472656 228.738281 C 161.933594 227.011719 162.441406 225.300781 163.050781 223.632812 C 163.664062 221.96875 164.355469 220.324219 165.296875 218.835938 C 165.769531 218.097656 166.304688 217.390625 166.953125 216.804688 C 167.246094 216.546875 167.574219 216.316406 167.921875 216.125 C 169.300781 217.292969 170.746094 218.371094 172.277344 219.320312 C 170.867188 218.292969 169.558594 217.152344 168.320312 215.941406 C 168.632812 215.8125 168.960938 215.710938 169.3125 215.675781 C 168.925781 215.640625 168.535156 215.691406 168.152344 215.78125 C 166.839844 214.488281 165.609375 213.109375 164.441406 211.6875 C 162.128906 208.867188 160.050781 205.863281 158.109375 202.78125 C 154.242188 196.597656 150.894531 190.101562 147.800781 183.492188 C 144.710938 176.882812 141.867188 170.152344 139.140625 163.363281 C 138.695312 162.261719 138.261719 161.152344 137.824219 160.046875 C 138.5625 159.25 139.300781 158.464844 140.039062 157.691406 C 140.980469 159.34375 141.914062 161.003906 142.84375 162.667969 C 146.601562 169.382812 150.335938 176.140625 154.214844 182.824219 C 158.085938 189.507812 162.101562 196.132812 166.46875 202.519531 C 168.660156 205.710938 170.945312 208.839844 173.410156 211.820312 C 175.878906 214.796875 178.527344 217.648438 181.535156 220.0625 C 178.710938 217.4375 176.300781 214.429688 174.070312 211.3125 C 171.847656 208.1875 169.8125 204.933594 167.878906 201.625 C 164.015625 195 160.519531 188.164062 157.15625 181.257812 C 153.789062 174.351562 150.5625 167.371094 147.292969 160.386719 C 146.25 158.164062 145.195312 155.941406 144.128906 153.71875 C 144.777344 153.148438 145.433594 152.609375 146.089844 152.109375 C 146.671875 152.984375 147.25 153.867188 147.828125 154.75 C 148.933594 156.414062 149.992188 158.128906 151.058594 159.832031 C 155.316406 166.660156 159.421875 173.628906 163.5625 180.585938 C 167.699219 187.546875 171.863281 194.507812 176.253906 201.332031 C 177.332031 203.050781 178.464844 204.734375 179.601562 206.414062 C 180.171875 207.253906 180.722656 208.105469 181.308594 208.933594 L 183.089844 211.402344 C 184.71875 213.703125 186.472656 215.914062 188.3125 218.039062 C 186.3125 218.953125 184.296875 219.925781 182.265625 220.933594 C 178.277344 222.902344 174.242188 225.113281 170.082031 227.015625 C 169.042969 227.488281 168 227.925781 166.957031 228.308594 C 165.921875 228.6875 164.878906 229 163.933594 229.152344 C 163.691406 229.199219 163.476562 229.203125 163.253906 229.234375 C 163.074219 229.226562 162.789062 229.25 162.742188 229.226562 M 321.6875 219.824219 C 320.890625 222.675781 320.285156 225.589844 319.925781 228.550781 C 319.5625 231.507812 319.4375 234.511719 319.640625 237.523438 C 319.847656 240.527344 320.386719 243.542969 321.363281 246.441406 C 322.335938 249.339844 323.757812 252.117188 325.597656 254.59375 C 327.4375 257.070312 329.6875 259.234375 332.175781 261.015625 C 332.777344 261.464844 333.472656 261.910156 334.097656 262.308594 L 335.027344 262.875 L 335.25 263.007812 C 335.308594 263.046875 335.367188 263.082031 335.425781 263.121094 C 335.539062 263.199219 335.652344 263.28125 335.761719 263.367188 C 336.636719 264.046875 337.296875 264.996094 337.753906 266.117188 C 338.671875 268.382812 338.792969 271.160156 338.601562 273.886719 C 338.402344 276.632812 337.882812 279.410156 337.210938 282.15625 C 336.53125 284.902344 335.707031 287.632812 334.785156 290.335938 C 332.929688 295.738281 330.695312 301.042969 328.1875 306.1875 C 326.925781 308.75 325.597656 311.304688 324.136719 313.675781 C 323.773438 314.257812 323.394531 314.839844 323.027344 315.324219 C 323.019531 315.332031 323.011719 315.34375 323.003906 315.355469 L 322.84375 315.351562 C 321.230469 315.335938 319.808594 315.429688 318.328125 315.511719 C 312.878906 315.851562 307.5 316.371094 302.105469 316.898438 C 302.097656 316.828125 302.089844 316.761719 302.089844 316.679688 C 302.085938 316.160156 302.242188 315.464844 302.480469 314.773438 C 302.722656 314.074219 303.039062 313.355469 303.40625 312.652344 C 303.585938 312.296875 303.777344 311.945312 303.980469 311.601562 L 304.289062 311.089844 L 304.484375 310.78125 L 304.542969 310.730469 L 304.789062 310.527344 C 304.960938 310.390625 305.136719 310.25 305.324219 310.117188 C 305.6875 309.847656 306.082031 309.59375 306.480469 309.34375 C 306.839844 309.121094 307.210938 308.914062 307.585938 308.707031 C 307.617188 308.699219 307.648438 308.691406 307.675781 308.683594 L 307.667969 308.664062 C 308.101562 308.429688 308.546875 308.207031 308.992188 307.996094 C 309.863281 307.59375 310.761719 307.226562 311.675781 306.90625 C 312.589844 306.578125 313.523438 306.300781 314.464844 306.042969 L 315.257812 305.828125 L 315.644531 305.152344 C 316.625 303.445312 317.269531 301.6875 317.769531 299.914062 C 318.265625 298.136719 318.59375 296.335938 318.789062 294.527344 C 319.171875 290.910156 319.027344 287.265625 318.421875 283.703125 C 317.816406 280.136719 316.722656 276.660156 315.203125 273.390625 C 313.679688 270.121094 311.714844 267.0625 309.425781 264.300781 C 307.132812 261.539062 304.523438 259.058594 301.695312 256.894531 C 298.863281 254.734375 295.835938 252.859375 292.695312 251.25 C 291.121094 250.445312 289.527344 249.695312 287.902344 249.015625 C 287.097656 248.660156 286.261719 248.347656 285.441406 248.015625 L 283.011719 247.109375 C 279.816406 245.949219 276.703125 244.589844 273.65625 243.097656 C 270.640625 241.546875 267.699219 239.855469 264.898438 237.949219 C 262.097656 236.042969 259.460938 233.902344 256.984375 231.585938 C 252.03125 226.949219 247.824219 221.519531 244.421875 215.601562 C 241.007812 209.679688 238.378906 203.304688 236.222656 196.777344 C 235.136719 193.511719 234.191406 190.199219 233.261719 186.878906 C 233.167969 186.535156 233.078125 186.1875 232.984375 185.84375 C 233.402344 185.695312 233.816406 185.546875 234.226562 185.390625 C 235.511719 189.148438 237.027344 192.8125 238.714844 196.390625 C 242.6875 204.667969 247.746094 212.390625 253.761719 219.242188 C 259.769531 226.101562 266.785156 232.003906 274.398438 236.867188 C 278.226562 239.265625 282.214844 241.386719 286.296875 243.273438 C 290.386719 245.144531 294.609375 246.683594 298.867188 248.0625 C 294.699219 246.417969 290.597656 244.632812 286.664062 242.523438 C 282.738281 240.40625 278.941406 238.074219 275.332031 235.484375 C 268.160156 230.25 261.710938 224.089844 256.332031 217.117188 C 250.945312 210.15625 246.574219 202.464844 243.289062 194.371094 C 241.792969 190.648438 240.539062 186.839844 239.511719 182.988281 C 239.953125 182.75 240.390625 182.511719 240.824219 182.261719 C 242.042969 185.144531 243.347656 187.988281 244.757812 190.777344 C 248.707031 198.617188 253.449219 206.066406 259.027344 212.816406 C 264.605469 219.558594 270.992188 225.621094 278.078125 230.65625 C 281.625 233.167969 285.328125 235.441406 289.144531 237.476562 C 292.988281 239.46875 296.949219 241.203125 300.976562 242.726562 C 297.050781 240.945312 293.230469 238.964844 289.554688 236.75 C 285.910156 234.492188 282.40625 232.019531 279.089844 229.332031 C 272.457031 223.941406 266.636719 217.644531 261.664062 210.777344 C 256.695312 203.90625 252.597656 196.441406 249.289062 188.667969 C 247.835938 185.265625 246.546875 181.804688 245.382812 178.300781 C 245.773438 177.777344 246.125 177.234375 246.4375 176.671875 C 247.8125 179.5 249.238281 182.3125 250.726562 185.09375 C 254.695312 192.5 259.164062 199.679688 264.320312 206.332031 C 269.46875 212.980469 275.285156 219.125 281.816406 224.371094 C 285.074219 226.996094 288.472656 229.441406 292.039062 231.605469 C 295.605469 233.769531 299.300781 235.691406 303.085938 237.390625 C 299.417969 235.441406 295.878906 233.285156 292.496094 230.910156 C 289.113281 228.535156 285.929688 225.898438 282.90625 223.113281 C 276.847656 217.535156 271.589844 211.171875 267.023438 204.378906 C 262.449219 197.582031 258.585938 190.34375 255.210938 182.878906 C 253.519531 179.144531 251.945312 175.355469 250.429688 171.519531 C 249.980469 170.390625 249.535156 169.257812 249.09375 168.121094 C 249.183594 167.601562 249.269531 167.078125 249.351562 166.550781 C 249.800781 167.328125 250.246094 168.101562 250.691406 168.882812 L 256.621094 179.34375 C 260.628906 186.335938 264.875 193.25 269.640625 199.800781 C 274.390625 206.355469 279.707031 212.523438 285.628906 218.019531 C 291.527344 223.539062 298.140625 228.257812 305.195312 232.054688 C 298.417969 227.773438 292.222656 222.660156 286.804688 216.835938 C 281.363281 211.039062 276.597656 204.65625 272.402344 197.933594 C 268.191406 191.210938 264.511719 184.175781 261.039062 177.007812 L 255.855469 166.167969 C 254.433594 163.230469 252.992188 160.285156 251.316406 157.34375 C 253.03125 159.367188 254.652344 161.585938 256.203125 163.871094 C 258.34375 167.007812 260.390625 170.269531 262.433594 173.554688 C 266.511719 180.132812 270.582031 186.800781 275.015625 193.234375 C 279.445312 199.671875 284.222656 205.894531 289.554688 211.609375 C 294.890625 217.308594 300.816406 222.460938 307.304688 226.71875 C 301.136719 222.003906 295.660156 216.496094 290.8125 210.515625 C 285.972656 204.515625 281.726562 198.082031 277.828125 191.445312 C 273.921875 184.804688 270.386719 177.957031 266.773438 171.070312 C 264.960938 167.632812 263.128906 164.179688 261.136719 160.757812 C 259.582031 158.082031 257.921875 155.417969 255.984375 152.832031 C 257.96875 154.632812 259.84375 156.671875 261.613281 158.84375 C 263.910156 161.667969 266.066406 164.675781 268.164062 167.753906 C 272.351562 173.917969 276.3125 180.339844 280.453125 186.660156 C 284.59375 192.984375 288.878906 199.25 293.636719 205.148438 C 298.382812 211.046875 303.582031 216.601562 309.414062 221.382812 C 303.949219 216.183594 299.222656 210.316406 294.972656 204.152344 C 290.710938 197.988281 286.945312 191.507812 283.308594 184.941406 C 279.667969 178.375 276.199219 171.695312 272.398438 165.097656 C 270.492188 161.800781 268.496094 158.523438 266.265625 155.328125 C 264.660156 153.03125 262.910156 150.78125 260.929688 148.648438 C 265.769531 152.140625 269.996094 156.90625 273.8125 161.96875 C 278.148438 167.71875 282.0625 173.90625 285.960938 180.117188 C 289.855469 186.332031 293.726562 192.609375 297.882812 198.695312 C 302.039062 204.777344 306.476562 210.699219 311.523438 216.046875 C 306.898438 210.332031 302.953125 204.144531 299.292969 197.808594 C 295.636719 191.46875 292.273438 184.964844 288.851562 178.453125 C 285.421875 171.949219 281.960938 165.421875 277.917969 159.109375 C 275.886719 155.960938 273.714844 152.859375 271.234375 149.925781 C 269.753906 148.175781 268.164062 146.484375 266.4375 144.890625 C 266.472656 144.882812 266.515625 144.875 266.550781 144.867188 C 271.320312 147.769531 275.589844 151.777344 279.386719 156.242188 C 283.910156 161.570312 287.839844 167.527344 291.550781 173.632812 C 295.261719 179.746094 298.746094 186.042969 302.316406 192.296875 C 305.886719 198.550781 309.53125 204.792969 313.632812 210.710938 C 310 204.492188 306.867188 198.027344 303.792969 191.53125 C 300.722656 185.027344 297.734375 178.476562 294.46875 172.015625 C 291.191406 165.558594 287.664062 159.160156 283.320312 153.15625 C 281.140625 150.160156 278.75 147.265625 276.054688 144.597656 C 275.777344 144.328125 275.5 144.058594 275.21875 143.792969 C 275.738281 143.765625 276.265625 143.742188 276.808594 143.726562 C 279.695312 145.707031 282.398438 148.023438 284.886719 150.601562 C 289.632812 155.503906 293.65625 161.234375 297.234375 167.246094 C 300.808594 173.269531 303.949219 179.605469 306.9375 186.019531 C 309.925781 192.433594 312.746094 198.945312 315.742188 205.371094 C 310.792969 192.09375 306.5 178.554688 300.164062 165.660156 C 296.992188 159.230469 293.304688 152.949219 288.613281 147.269531 C 287.652344 146.101562 286.636719 144.960938 285.578125 143.855469 C 286.75 143.917969 287.976562 144.003906 289.226562 144.105469 C 289.601562 144.421875 289.976562 144.730469 290.34375 145.058594 C 295.347656 149.539062 299.527344 155.046875 303.015625 160.988281 C 306.507812 166.941406 309.328125 173.347656 311.722656 179.910156 C 314.117188 186.484375 316.085938 193.234375 317.851562 200.035156 C 316.628906 193.113281 315.195312 186.214844 313.308594 179.402344 C 311.417969 172.597656 309.082031 165.867188 305.957031 159.417969 C 305.554688 158.59375 305.136719 157.769531 304.710938 156.949219 C 305.332031 157.691406 305.953125 158.433594 306.566406 159.203125 C 307.363281 160.195312 308.152344 161.207031 308.921875 162.253906 C 309.304688 162.773438 309.691406 163.296875 310.082031 163.824219 L 310.589844 164.558594 L 311.222656 165.449219 L 311.566406 165.921875 C 311.546875 165.902344 311.671875 166.042969 311.53125 165.894531 L 311.585938 165.960938 L 311.695312 166.097656 L 311.910156 166.367188 L 312.773438 167.453125 C 312.890625 167.601562 313.015625 167.746094 313.132812 167.890625 C 314.292969 170.574219 315.34375 173.300781 316.304688 176.0625 C 318.332031 181.890625 319.976562 187.851562 321.332031 193.875 C 322.003906 196.882812 322.636719 199.90625 323.183594 202.941406 C 323.457031 204.457031 323.710938 205.980469 323.949219 207.5 C 324.167969 208.917969 324.371094 210.347656 324.539062 211.75 C 323.367188 214.410156 322.464844 217.070312 321.6875 219.824219 M 394.695312 154.050781 L 394.695312 154.046875 C 394.503906 151.605469 394.070312 149.117188 393.355469 146.425781 C 392.191406 142.175781 390.457031 138.125 388.050781 134.03125 L 387.234375 132.699219 C 386.96875 132.273438 386.710938 131.851562 386.398438 131.386719 L 385.492188 130.035156 L 384.066406 128.144531 L 384.058594 128.140625 C 384.003906 128.050781 383.929688 127.933594 383.835938 127.828125 L 383.847656 127.820312 L 382.933594 126.644531 C 382.300781 125.832031 381.628906 125.058594 380.988281 124.332031 C 379.613281 122.792969 378.207031 121.363281 376.796875 120.082031 C 375.316406 118.75 373.777344 117.511719 372.230469 116.390625 C 366.257812 112.089844 359.167969 109.214844 352.265625 108.296875 C 346.09375 107.46875 340 108.054688 334.636719 109.988281 C 332.1875 110.867188 329.941406 112.019531 327.96875 113.410156 C 325.949219 114.855469 324.359375 116.472656 323.242188 118.222656 C 322.625 119.199219 322.175781 120.160156 321.914062 121.078125 C 321.640625 122.03125 321.523438 123.019531 321.578125 123.945312 C 321.636719 124.785156 321.828125 125.574219 322.148438 126.308594 C 322.4375 126.914062 322.765625 127.4375 323.113281 127.851562 C 323.714844 128.609375 324.335938 129.050781 324.707031 129.3125 L 326.925781 130.65625 L 326.1875 128.332031 C 326.144531 128.191406 326.109375 128.023438 326.070312 127.84375 L 326.011719 127.511719 C 325.976562 127.265625 325.945312 127.011719 325.941406 126.730469 C 325.933594 126.441406 325.972656 126.105469 326.042969 125.804688 C 326.167969 125.414062 326.300781 125.125 326.457031 124.90625 C 326.859375 124.375 327.503906 123.933594 328.417969 123.558594 C 328.886719 123.378906 329.421875 123.230469 330.027344 123.117188 C 330.621094 122.992188 331.265625 122.90625 331.953125 122.863281 C 333.417969 122.769531 334.964844 122.847656 336.546875 123.09375 C 339.96875 123.609375 343.585938 124.933594 346.730469 126.820312 C 350.105469 128.851562 353.058594 131.5625 355.511719 134.878906 C 356.714844 136.5 357.847656 138.359375 358.871094 140.390625 L 358.933594 140.527344 C 359.160156 140.992188 359.382812 141.457031 359.601562 141.933594 L 359.730469 142.226562 L 359.691406 142.257812 L 359.875 142.589844 L 359.867188 142.59375 L 360.574219 144.148438 L 360.777344 144.667969 C 360.847656 144.882812 360.921875 145.097656 360.996094 145.292969 L 361.558594 146.886719 C 361.617188 147.101562 361.683594 147.316406 361.75 147.53125 C 361.851562 147.859375 361.953125 148.183594 362.03125 148.53125 L 362.246094 149.308594 L 362.417969 150.082031 C 362.621094 151.054688 362.765625 152.039062 362.832031 152.914062 C 362.949219 154.75 362.707031 155.996094 362.429688 156.582031 C 362.289062 156.917969 362.171875 157.039062 362.160156 157.050781 L 362.097656 157.097656 C 361.988281 157.183594 361.976562 157.191406 361.988281 157.1875 C 361.867188 157.222656 361.730469 157.28125 361.558594 157.363281 C 361.320312 157.480469 360.988281 157.640625 360.378906 157.785156 C 359.414062 158.054688 358.015625 158.160156 356.554688 158.074219 C 355.738281 158.015625 354.855469 157.898438 353.917969 157.71875 C 352.949219 157.535156 351.917969 157.238281 351.039062 156.976562 C 347.171875 155.761719 342.933594 153.542969 338.785156 150.5625 L 337.289062 149.453125 L 335.8125 148.292969 C 335.621094 148.132812 335.429688 147.976562 335.234375 147.820312 C 334.9375 147.582031 334.644531 147.34375 334.351562 147.082031 L 333.339844 146.203125 C 333.292969 146.15625 333.242188 146.101562 333.179688 146.050781 L 333.183594 146.046875 L 332.75 145.671875 C 330.132812 143.316406 327.355469 141.105469 324.488281 139.109375 C 319.140625 135.386719 313.4375 132.378906 307.53125 130.164062 C 302.355469 128.222656 297.121094 126.925781 291.972656 126.304688 C 288.671875 125.90625 285.476562 125.796875 282.46875 125.96875 C 282.058594 125.417969 281.730469 125.011719 281.472656 124.726562 C 278.335938 121.277344 249.488281 105.578125 225.652344 109.40625 C 173.003906 117.859375 134.691406 111.085938 134.308594 111.019531 L 134.195312 111.007812 C 134.132812 111.007812 127.863281 110.835938 119.519531 103.777344 L 119.417969 103.6875 C 116.855469 101.519531 116.804688 101.480469 116.089844 101.464844 C 115.628906 101.453125 114.410156 101.425781 107.617188 97.917969 C 95.949219 91.886719 88.613281 79.847656 88.421875 77.128906 C 88.285156 75.203125 82.363281 43.875 80.839844 42.65625 C 80.664062 42.511719 80.4375 42.457031 80.203125 42.492188 C 78.453125 42.773438 69.625 55.867188 64.382812 63.863281 C 61.214844 64.042969 57.75 64.117188 57.019531 63.941406 C 56.558594 63.390625 54.617188 60.453125 52.734375 57.609375 C 46.984375 48.917969 44.445312 45.21875 43.609375 44.800781 C 43.371094 44.683594 43.089844 44.691406 42.859375 44.832031 C 42.398438 45.109375 41.765625 45.488281 41.117188 58.429688 C 40.839844 64.03125 40.679688 69.628906 40.652344 70.738281 C 37.484375 75.355469 32.785156 81.933594 31.941406 82.558594 C 30.957031 82.957031 28.726562 85.847656 26.996094 88.25 L 26.839844 88.46875 L 27.765625 94.707031 C 28.742188 101.308594 18.460938 109.558594 12.316406 114.484375 C 10.496094 115.949219 9.054688 117.105469 8.324219 117.886719 C 4.875 121.582031 12.410156 129.425781 13.28125 130.308594 L 13.414062 130.441406 L 13.59375 130.488281 C 20.308594 132.175781 22.558594 132.488281 23.398438 132.417969 C 24.320312 133.324219 26.140625 134.964844 26.984375 134.742188 C 27.261719 134.667969 27.472656 134.453125 27.542969 134.167969 C 27.628906 133.824219 27.527344 133.367188 27.308594 132.449219 C 27.15625 131.800781 26.96875 131.019531 26.914062 130.363281 C 27.566406 130.039062 28.285156 129.691406 29.027344 129.335938 C 29.414062 129.402344 29.785156 129.488281 30.117188 129.566406 C 30.597656 129.675781 30.949219 129.757812 31.226562 129.757812 L 31.230469 129.757812 C 31.945312 129.757812 34.492188 129.042969 34.996094 128.898438 L 35.390625 128.785156 L 35.46875 128.382812 C 35.636719 127.5 36.144531 126.460938 36.472656 126.5 C 37.738281 126.671875 38.25 126.535156 38.445312 126.4375 L 38.539062 126.386719 L 38.617188 126.3125 C 39.46875 125.460938 40.609375 124.710938 40.902344 124.789062 C 41.128906 125.042969 41.4375 125.140625 41.738281 125.0625 C 42.183594 124.949219 42.417969 124.546875 42.625 123.847656 C 43.429688 123.820312 43.988281 123.996094 44.300781 124.371094 C 44.773438 124.9375 44.789062 126.074219 44.351562 127.664062 L 42.371094 128.152344 L 42.371094 128.925781 L 41.371094 128.925781 L 37.027344 131.660156 L 37.066406 132.066406 C 37.066406 132.074219 37.109375 132.570312 37.09375 133.128906 C 36.542969 133.558594 36.03125 133.972656 35.5625 134.367188 C 34.289062 134.363281 32.746094 134.261719 32.730469 134.257812 L 32.015625 134.210938 L 32.015625 138.054688 C 31.578125 138.714844 31.296875 139.324219 31.164062 139.914062 C 30.371094 143.382812 35.539062 145.226562 35.757812 145.304688 L 37.003906 145.738281 L 36.617188 144.476562 C 34.886719 138.859375 46.496094 134.019531 55.613281 130.828125 C 56.683594 132.046875 57.546875 133.3125 58.199219 134.605469 C 59.089844 136.308594 59.765625 138.289062 60.257812 140.65625 C 61.121094 145.058594 61.144531 149.667969 61.164062 153.734375 C 61.164062 154.660156 61.164062 155.582031 61.164062 156.507812 C 61.15625 159.988281 61.148438 163.585938 61.285156 167.144531 C 61.371094 169.542969 61.507812 171.75 61.695312 173.902344 C 61.890625 176.238281 62.214844 178.535156 62.652344 180.726562 C 63.585938 185.4375 65.085938 189.875 67.117188 193.921875 C 69.148438 197.996094 71.824219 201.886719 75.070312 205.488281 C 80.527344 211.511719 87.410156 216.800781 96.710938 222.121094 C 99.15625 231.773438 103.667969 270.820312 103.976562 285.1875 C 104.261719 298.207031 98.757812 307.992188 97.421875 309.792969 C 96.929688 309.945312 96.007812 310.640625 93.53125 312.542969 C 91.609375 314.019531 89.425781 315.691406 87.960938 316.609375 C 85.777344 317.972656 83.261719 319.945312 83.144531 323.152344 C 83.125 323.710938 83.46875 324.230469 84.164062 324.691406 C 86.523438 326.257812 94.605469 327.710938 102.59375 323.980469 C 106.082031 322.351562 108.238281 321.667969 109.585938 321.265625 C 109.582031 321.273438 109.578125 321.28125 109.574219 321.289062 C 109 322.148438 108.582031 322.996094 108.292969 323.859375 C 108.191406 324.128906 108.121094 324.410156 108.066406 324.636719 C 108 324.890625 107.945312 325.167969 107.914062 325.457031 C 107.863281 325.746094 107.839844 326.046875 107.835938 326.339844 L 107.828125 326.796875 L 107.835938 326.851562 C 107.882812 327.1875 107.894531 327.304688 107.894531 327.316406 L 107.882812 327.625 L 108 327.738281 C 108.023438 327.800781 108.054688 327.902344 108.097656 328.058594 L 108.132812 328.152344 C 108.414062 328.746094 108.605469 328.984375 108.777344 329.171875 L 108.859375 329.269531 C 109.019531 329.445312 109.101562 329.515625 109.195312 329.597656 L 109.277344 329.667969 C 109.390625 329.765625 109.460938 329.816406 109.539062 329.871094 L 109.601562 329.914062 C 109.765625 330.039062 109.882812 330.105469 110.003906 330.179688 L 110.109375 330.242188 C 110.382812 330.394531 110.632812 330.519531 110.855469 330.617188 C 111.328125 330.832031 111.742188 330.984375 112.085938 331.105469 C 112.777344 331.339844 113.484375 331.546875 114.316406 331.753906 C 117.09375 332.425781 119.949219 332.789062 123.046875 332.871094 C 123.332031 332.875 123.613281 332.878906 123.886719 332.878906 C 126.972656 332.878906 129.613281 332.542969 132.136719 331.835938 C 133.863281 331.34375 135.371094 330.707031 136.746094 329.886719 C 137.527344 329.417969 138.253906 328.894531 138.914062 328.328125 C 139.261719 328.023438 139.597656 327.703125 139.898438 327.386719 C 140.054688 327.230469 140.199219 327.0625 140.375 326.859375 L 140.441406 326.785156 C 140.492188 326.722656 140.546875 326.664062 140.617188 326.574219 L 140.777344 326.375 C 143.988281 322.410156 146.226562 318.03125 148.390625 313.800781 C 148.753906 313.085938 149.113281 312.378906 149.476562 311.6875 C 150.113281 310.46875 150.695312 309.386719 151.308594 308.460938 C 151.5625 308.074219 151.808594 307.746094 152.027344 307.488281 L 152.519531 307.046875 L 153.328125 306.902344 L 153.316406 306.808594 C 153.675781 306.65625 154.050781 306.433594 154.226562 306.285156 C 154.410156 306.144531 154.660156 305.929688 154.792969 305.773438 C 155.316406 305.1875 155.515625 304.765625 155.664062 304.457031 L 155.710938 304.363281 C 155.878906 303.992188 155.972656 303.695312 156.050781 303.445312 C 156.355469 302.421875 156.472656 301.601562 156.578125 300.871094 C 156.792969 299.289062 156.890625 297.789062 156.96875 296.503906 C 157.21875 291.796875 157.261719 287.148438 157.308594 282.652344 L 157.335938 280.070312 C 157.363281 277.816406 157.382812 275.570312 157.402344 273.332031 C 157.476562 264.746094 157.546875 256.632812 158.195312 248.707031 C 158.4375 245.816406 158.71875 243.496094 159.070312 241.410156 C 159.300781 240.09375 159.535156 238.988281 159.796875 238.023438 C 160.101562 236.851562 160.4375 235.898438 160.796875 235.199219 C 160.949219 234.910156 161.101562 234.679688 161.203125 234.546875 L 161.519531 234.613281 L 161.523438 234.59375 L 162.285156 234.667969 C 162.613281 234.691406 162.882812 234.691406 163.066406 234.679688 L 163.722656 234.640625 L 164.011719 234.605469 C 164.3125 234.566406 164.617188 234.527344 164.882812 234.46875 C 166.429688 234.164062 167.761719 233.675781 168.863281 233.238281 C 169.9375 232.804688 171.0625 232.296875 172.304688 231.683594 C 175.429688 230.117188 178.355469 228.488281 181.179688 226.910156 C 182.285156 226.296875 183.375 225.6875 184.460938 225.09375 C 188.871094 222.652344 192.441406 220.832031 195.691406 219.371094 C 196.34375 219.074219 196.996094 218.792969 197.648438 218.515625 L 197.921875 218.402344 C 200.464844 217.332031 202.941406 216.4375 205.277344 215.738281 L 205.78125 215.59375 C 207.667969 215.046875 210.679688 214.542969 212.671875 214.207031 C 213.585938 214.054688 214.261719 213.941406 214.585938 213.863281 C 215.273438 213.800781 215.871094 213.761719 216.417969 213.738281 C 217.789062 213.691406 219.164062 213.71875 220.515625 213.828125 C 219.441406 218.332031 218.46875 230.503906 234.59375 241.886719 L 254.390625 255.859375 C 255.109375 256.535156 267.582031 268.453125 267.644531 277.847656 C 267.71875 289.0625 264.214844 295.84375 263.652344 296.863281 L 250.628906 304.855469 L 250.539062 304.914062 L 250.46875 304.996094 C 250.007812 305.542969 246.027344 310.414062 247.933594 313.140625 C 249.8125 315.828125 269.253906 314.351562 272.265625 313.210938 C 272.957031 312.949219 273.277344 312.574219 273.222656 312.097656 C 273 310.164062 275.855469 295.152344 279.203125 292.714844 C 282.234375 290.507812 296.332031 273.488281 294.898438 270.855469 C 294 269.214844 293.964844 268.007812 293.964844 268 L 293.964844 267.714844 L 293.753906 267.519531 C 293.617188 267.390625 281.046875 255.566406 276.84375 248.453125 C 278.527344 249.21875 280.140625 249.894531 281.722656 250.5 L 284.105469 251.441406 C 284.355469 251.546875 284.605469 251.652344 284.855469 251.753906 C 285.375 251.972656 285.890625 252.1875 286.417969 252.429688 C 287.871094 253.070312 289.34375 253.789062 290.914062 254.628906 C 297.191406 257.996094 302.34375 262.128906 306.222656 266.917969 C 308.300781 269.480469 310.023438 272.253906 311.335938 275.160156 C 312.675781 278.128906 313.609375 281.238281 314.113281 284.410156 C 314.628906 287.660156 314.703125 290.894531 314.335938 294.023438 C 314.117188 295.792969 313.824219 297.320312 313.429688 298.691406 C 313.085938 299.898438 312.671875 301 312.195312 301.980469 C 311.601562 302.152344 310.878906 302.367188 310.167969 302.621094 C 309.101562 302.992188 308.058594 303.414062 307.074219 303.867188 C 306.941406 303.929688 306.8125 303.992188 306.679688 304.058594 L 306.148438 304.277344 C 304.417969 304.988281 302.703125 305.710938 300.988281 306.449219 C 299.402344 307.132812 297.609375 307.910156 295.832031 308.765625 C 295.367188 308.992188 294.945312 309.203125 294.46875 309.472656 L 294.40625 309.511719 C 294.292969 309.578125 294.1875 309.636719 294.023438 309.75 L 293.910156 309.832031 C 293.820312 309.894531 293.667969 310.027344 293.570312 310.136719 L 293.300781 310.441406 L 293.300781 310.464844 C 293.269531 310.496094 293.238281 310.535156 293.203125 310.574219 L 293 310.808594 C 292.132812 311.835938 291.578125 312.832031 291.316406 313.855469 C 290.984375 315.054688 291.097656 316.398438 291.609375 317.535156 C 292.019531 318.453125 292.628906 319.289062 293.527344 320.160156 C 293.835938 320.507812 294.125 320.707031 294.441406 320.910156 C 294.792969 321.132812 295.144531 321.285156 295.492188 321.425781 C 296.128906 321.664062 296.828125 321.808594 297.613281 321.859375 C 298.335938 321.925781 299.03125 321.863281 299.71875 321.792969 L 300.253906 321.703125 L 300.265625 321.714844 L 301.347656 321.609375 C 307.980469 320.972656 313.46875 320.511719 318.617188 320.15625 L 318.6875 320.148438 C 320.074219 320.066406 321.488281 319.96875 322.75 319.984375 L 323.421875 320.035156 C 323.484375 320.050781 323.558594 320.0625 323.644531 320.0625 L 323.796875 320.082031 L 323.796875 320.074219 L 326.835938 320.410156 L 325.21875 319.601562 C 325.261719 319.574219 325.304688 319.542969 325.371094 319.5 C 325.636719 319.316406 325.78125 319.175781 325.933594 319.027344 C 326.054688 318.910156 326.15625 318.796875 326.253906 318.691406 C 326.425781 318.492188 326.574219 318.304688 326.714844 318.117188 C 327.261719 317.390625 327.699219 316.695312 328.070312 316.097656 C 329.769531 313.304688 331.167969 310.535156 332.308594 308.191406 C 334.957031 302.707031 337.226562 297.1875 339.058594 291.789062 C 340.113281 288.667969 340.925781 285.855469 341.542969 283.1875 C 342.328125 279.796875 342.769531 276.929688 342.9375 274.160156 C 343.039062 272.425781 343.015625 270.871094 342.863281 269.40625 C 342.667969 267.539062 342.277344 265.925781 341.667969 264.480469 C 341.136719 263.210938 340.125 261.410156 338.320312 260.050781 C 338.128906 259.902344 337.929688 259.761719 337.742188 259.640625 C 337.65625 259.578125 337.566406 259.523438 337.421875 259.4375 L 336.078125 258.636719 C 335.542969 258.300781 335.078125 258.011719 334.570312 257.640625 C 332.359375 256.101562 330.417969 254.257812 328.800781 252.160156 C 327.195312 250.089844 325.914062 247.738281 324.996094 245.171875 C 323.308594 240.472656 322.773438 235.011719 323.398438 228.933594 C 323.671875 226.277344 324.167969 223.492188 324.867188 220.652344 C 325.601562 217.71875 326.472656 215.027344 327.453125 212.664062 L 327.664062 212.160156 L 327.597656 211.679688 C 327.355469 209.949219 327.066406 208.277344 326.84375 207.011719 C 326.5625 205.4375 326.265625 203.886719 325.960938 202.398438 C 325.253906 198.964844 324.5625 195.972656 323.851562 193.25 C 322.183594 186.800781 320.328125 180.949219 318.1875 175.359375 C 317.988281 174.847656 317.785156 174.332031 317.582031 173.820312 C 317.742188 173.980469 317.910156 174.148438 318.082031 174.320312 C 319.726562 175.9375 321.164062 177.230469 322.589844 178.386719 C 324.273438 179.789062 325.972656 181.066406 327.632812 182.1875 C 329.390625 183.378906 331.277344 184.523438 333.25 185.605469 C 335.324219 186.691406 337.414062 187.65625 339.46875 188.480469 C 341.558594 189.308594 343.800781 190.019531 346.3125 190.652344 C 347.347656 190.910156 348.507812 191.160156 349.984375 191.429688 L 351.859375 191.699219 C 352.382812 191.761719 352.914062 191.816406 353.441406 191.867188 L 353.78125 191.902344 C 359.503906 192.40625 365.058594 191.84375 370.296875 190.222656 C 373.25 189.308594 376.089844 188.007812 378.746094 186.359375 C 381.558594 184.621094 384.09375 182.492188 386.277344 180.027344 C 388.503906 177.542969 390.382812 174.660156 391.710938 171.691406 C 393.019531 168.808594 393.925781 165.761719 394.40625 162.632812 C 394.824219 159.855469 394.921875 156.964844 394.695312 154.050781 "/>
<path style=" stroke:none;fill-rule:nonzero;fill:rgb(6.666667%,5.882353%,5.098039%);fill-opacity:1;" d="M 193.949219 261.359375 L 193.980469 261.375 Z M 193.949219 261.359375 "/>
</g>
</svg>
